<svg width="140" height="150" viewBox="0 0 140 150" fill="none" xmlns="http://www.w3.org/2000/svg">
<path d="M94.8818 25.064C94.8818 20.1284 93.411 15.2432 90.6722 11.1135C87.9335 6.98377 84.0789 3.76056 79.5143 1.84678C75.0005 -0.0166377 69.9794 -0.469901 65.1105 0.486989C60.2923 1.49424 55.8292 3.91165 52.3804 7.43703C49.743 10.0559 47.765 13.2287 46.4971 16.7038C45.2292 20.1788 44.7727 23.9056 45.1277 27.6325C45.4827 31.3089 46.6493 34.8847 48.5765 38.0575C50.5038 41.2304 53.0397 43.9499 56.1335 46.0148C59.5316 48.2811 63.4368 49.6913 67.4942 50.0942C71.5517 50.4971 75.6598 49.8927 79.4636 48.3315C82.5067 47.0221 85.2454 45.1587 87.5277 42.7412C92.2445 38.0575 94.8818 31.6615 94.8818 25.064Z" fill="#5152FB"/>
<path d="M15.3042 64.9006L59.6822 142.258C65.2612 152.179 74.6947 152.179 80.3243 142.258L99.7999 108.213C72.0573 115.011 31.0267 92.2979 15.3042 64.9006Z" fill="#FDBC42"/>
<path d="M130.284 25.0632C120.8 25.0632 109.236 33.6249 104.57 44.1003C104.57 44.1003 93.767 68.4255 69.9804 68.4255C61.8149 68.4255 53.9029 65.4541 47.7153 60.0653C55.5259 69.5838 82.1526 90.1821 121.51 70.3896L137.131 43.1938C142.862 33.1716 139.717 25.0632 130.284 25.0632Z" fill="#5152FB"/>
<path d="M47.7134 60.0152C42.5909 55.5833 38.3813 50.1442 35.4397 44.0503C30.7737 33.5748 19.2101 25.0132 9.77656 25.0132C0.241627 25.0635 -2.85215 33.1719 2.87895 43.1437L15.3048 64.8501C31.0273 92.2474 72.0579 115.011 99.9019 108.162L121.558 70.39C82.1 90.1825 55.5239 69.5841 47.7134 60.0152Z" fill="#FA4769"/>
</svg>
